<svg xmlns="http://www.w3.org/2000/svg" viewBox="0 0 80 80" width="80" height="80">
  
  <rect width="80" height="80" rx="14" fill="#2D9E6B"></rect>
  
  <rect x="20" y="12" width="8" height="8" fill="white"></rect>
  <rect x="52" y="12" width="8" height="8" fill="white"></rect>
  
  <rect x="20" y="20" width="8" height="8" fill="white"></rect>
  <rect x="44" y="20" width="8" height="8" fill="white"></rect>
  
  <rect x="20" y="28" width="8" height="8" fill="white"></rect>
  <rect x="36" y="28" width="8" height="8" fill="white"></rect>
  
  <rect x="20" y="36" width="8" height="8" fill="white"></rect>
  <rect x="28" y="36" width="8" height="8" fill="white"></rect>
  
  <rect x="20" y="44" width="8" height="8" fill="white"></rect>
  <rect x="36" y="44" width="8" height="8" fill="white"></rect>
  
  <rect x="20" y="52" width="8" height="8" fill="white"></rect>
  <rect x="44" y="52" width="8" height="8" fill="white"></rect>
  
  <rect x="20" y="60" width="8" height="8" fill="white"></rect>
  <rect x="52" y="60" width="8" height="8" fill="white"></rect>
</svg>